<?xml version="1.0" encoding="UTF-8"?>
<svg id="Ebene_1" data-name="Ebene 1" xmlns="http://www.w3.org/2000/svg" viewBox="0 0 62.61 62.61">
  <defs>
    <style>
      .cls-1 {
        fill: #fff;
      }
    </style>
  </defs>
  <path class="cls-1" d="M31.3,5.87c14.05,0,25.43,11.39,25.43,25.43s-11.39,25.43-25.43,25.43S5.87,45.35,5.87,31.3,17.26,5.87,31.3,5.87Zm0,56.74c17.29,0,31.3-14.01,31.3-31.3S48.59,0,31.3,0,0,14.01,0,31.3s14.01,31.3,31.3,31.3Zm-6.92-24.38c-3.82-3.82-3.82-10.01,0-13.83,3.82-3.82,10.01-3.82,13.83,0,1.15,1.15,3.01,1.15,4.15,0s1.15-3.01,0-4.15c-6.11-6.11-16.02-6.11-22.13,0s-6.11,16.02,0,22.13c6.11,6.11,16.02,6.11,22.13,0,1.15-1.15,1.15-3.01,0-4.15s-3.01-1.15-4.15,0c-3.82,3.82-10.01,3.82-13.83,0h0Z"/>
</svg>