<?xml version="1.0" encoding="UTF-8"?>
<svg id="Ebene_1" data-name="Ebene 1" xmlns="http://www.w3.org/2000/svg" viewBox="0 0 62.61 62.37">
  <defs>
    <style>
      .cls-1 {
        fill: #fff;
      }
    </style>
  </defs>
  <path class="cls-1" d="M62.61,31.3C62.61,14.01,48.59,0,31.3,0S0,14.01,0,31.3c0,14.67,10.11,27,23.75,30.39v-20.82h-6.46v-9.56h6.46v-4.12c0-10.65,4.82-15.59,15.28-15.59,1.98,0,5.4,.39,6.81,.78v8.66c-.73-.07-2.02-.12-3.62-.12-5.14,0-7.12,1.94-7.12,6.99v3.4h10.22l-1.76,9.56h-8.47v21.51c15.5-1.87,27.51-15.06,27.51-31.07h0Z"/>
</svg>