<?xml version="1.0" encoding="UTF-8"?>
<svg id="Layer_1" data-name="Layer 1" xmlns="http://www.w3.org/2000/svg" viewBox="0 0 1003.01 1155.27">
  <defs>
    <style>
      .cls-1 {
        fill: #eae344;
      }

      .cls-2 {
        fill: #f2f2f2;
      }
    </style>
  </defs>
  <g>
    <path class="cls-2" d="M500.53,8.92c-37.37,40.06-72.46,82.59-99.11,130.2-26.44,47.39-45.44,99.75-47.08,153.79-.9,26.92,2.32,53.83,9.45,79.64,7.07,25.86,18.52,50.4,32.4,73.46,27.76,46.28,65.18,86.29,102.44,126.35,37.15,40.16,75.26,80.8,104.55,128.62,14.62,23.8,26.55,49.56,34.52,76.63,7.97,27.07,11.56,55.41,10.98,83.54-1.06,56.58-19.84,111.25-47.02,159.59-27.18,48.66-62.8,91.67-101.49,130.99l-3.48,3.54-3.75-2.9c-24.8-19.26-46.6-41.17-66.44-65.02-19.74-23.8-37-49.82-50.08-77.9-6.65-13.99-12.03-28.55-16.31-43.38-4.38-14.83-7.23-30.08-8.71-45.44-3.38-30.72,.47-61.85,9.02-91.2-7.18,29.77-9.45,60.64-5.28,90.77,1.95,15.04,5.28,29.92,10.08,44.33,4.7,14.41,10.4,28.5,17.36,41.96,13.83,26.92,31.09,52.09,50.93,74.99,19.79,22.85,41.96,44.12,65.86,61.96l-7.23,.63c37.42-39.53,71.19-82.65,97.21-129.99,25.91-47.23,42.85-99.69,43.86-153.16,.42-26.65-3.01-53.36-10.66-78.9-7.55-25.54-19.1-49.87-32.99-72.83-27.92-46.07-65.18-86.24-102.23-126.5-36.94-40.43-74.57-81.54-102.91-129.78-14.09-24.07-25.39-50.03-32.3-77.21-6.91-27.18-9.71-55.31-8.18-83.23,2.96-56,23.33-109.51,51.98-156.43,28.82-47.23,65.23-88.98,104.6-127.14Z"/>
    <path class="cls-2" d="M988.23,290.8c-53.51-11.77-107.98-20.21-162.55-18.95-54.25,1.42-108.98,11.72-156.32,37.84-23.59,12.93-45.12,29.45-63.7,48.71-18.68,19.26-33.93,41.64-46.71,65.28-25.65,47.5-41.06,100.06-56.52,152.52-15.57,52.46-31.14,105.92-57.37,155.48-13.04,24.7-29.13,48.13-48.34,68.71-19.21,20.69-41.8,38.16-66.29,52.04-49.24,27.92-105.82,39.63-161.28,40.9-55.73,1.42-110.88-7.34-164.4-20.58l-4.75-1.16,.47-4.59c3.32-31.3,10.5-61.33,20.37-90.77,9.87-29.34,22.96-57.74,40.06-83.6,8.39-13.04,18.1-25.17,28.55-36.63,10.4-11.45,21.95-21.85,34.36-31.03,24.59-18.79,53.3-31.51,82.96-39.11-29.29,8.97-57.05,22.9-80.69,42.06-11.87,9.45-22.9,20-32.67,31.61-9.82,11.56-18.89,23.75-26.7,36.73-15.67,25.91-28.08,53.83-37.1,82.75-9.02,28.87-15.46,58.95-18.05,88.66l-4.22-5.75c53.09,12.03,107.4,19.1,161.39,17.42,53.83-1.74,107.61-13.88,154.11-40.27,23.17-13.19,44.38-29.77,62.43-49.35,18.15-19.53,33.2-41.85,45.86-65.5,25.39-47.5,40.95-100.01,56.73-152.42,15.94-52.35,32.14-105.71,59.27-154.69,13.51-24.38,30.08-47.34,49.98-67.13,19.84-19.79,42.64-36.52,67.45-49.45,49.66-25.97,106.08-35.73,161.07-34.99,55.31,.74,109.77,10.77,162.6,25.23Z"/>
    <path class="cls-2" d="M496.2,1147.88c37.52-39.85,72.46-82.54,98.43-130.52,25.75-47.76,43.17-100.59,44.23-154.63,.74-26.97-2.27-53.88-9.39-79.69-7.02-25.91-18.37-50.45-32.14-73.52-27.6-46.39-64.81-86.55-101.86-126.72-37-40.32-74.89-81.12-103.86-129.04-14.46-23.91-26.34-49.66-34.09-76.79-7.86-27.07-11.24-55.41-10.56-83.54,.79-28.18,5.7-56.1,14.09-82.81,8.34-26.76,19.95-52.3,33.62-76.47,27.39-48.5,63.23-91.36,102.02-130.46l3.69-3.69,3.8,3.22c24.17,20.69,45.18,43.8,64.28,68.71,18.95,24.91,35.52,51.83,47.87,80.64,6.33,14.36,11.35,29.24,15.36,44.33,4.12,15.09,6.7,30.61,8.02,46.13,2.96,31.14-1,62.65-9.82,92.31,7.44-30.08,9.87-61.38,6.07-91.94-1.79-15.25-4.86-30.4-9.39-45.07-4.43-14.67-9.87-29.13-16.52-42.96-13.25-27.71-29.71-53.83-48.82-77.79-19.05-23.91-40.53-46.5-63.91-65.65l7.44-.47c-37.58,39.37-71.56,82.28-97.79,129.46-26.12,47.08-43.33,99.43-44.6,152.84-.53,26.65,2.69,53.36,10.24,78.9,7.39,25.6,18.84,49.93,32.56,72.99,27.65,46.18,64.7,86.5,101.54,126.93,36.73,40.58,74.2,81.8,102.33,130.15,13.99,24.12,25.23,50.08,32.04,77.26,6.91,27.18,9.39,55.36,8.07,83.12-2.32,55.84-21.06,109.88-49.08,157.27-28.08,47.66-64.39,89.61-103.86,127.51Z"/>
    <path class="cls-2" d="M.63,300.24c16.99,52.04,37.37,103.34,66.18,149.67,28.76,46.02,65.44,87.98,111.99,115.47,23.12,13.77,48.29,23.96,74.36,30.14,26.07,6.28,53.09,8.13,79.96,7.07,53.94-2.01,107.08-15.41,160.12-28.76,53.09-13.19,107.08-26.97,163.08-29.5,27.92-1.27,56.21,.63,83.76,6.76,27.55,6.07,54.1,16.62,78.48,30.72,24.38,14.14,46.6,31.82,66.02,52.04,19.47,20.16,36.42,42.54,51.09,66.18,29.5,47.29,50.03,99.27,65.76,152.05l1.58,5.28-4.96,1.69c-30.61,10.24-61.75,16.62-93.36,20.48-31.56,3.75-63.65,4.59-95.26,.95-31.61-3.59-62.91-11.24-91.83-24.33-29.13-12.72-55.36-31.4-77.58-53.78,23.22,21.32,50.03,38.58,79.06,50.24,28.97,11.93,59.95,18.37,91.04,20.85,31.14,2.27,62.49,1.21,93.41-3.22,30.82-4.38,61.7-11.45,90.62-21.8l-3.43,6.91c-16.62-51.83-38-102.28-66.87-147.93-28.87-45.49-66.55-85.66-112.94-112.36-23.12-13.25-48.18-23.12-74.2-28.76-26.02-5.7-52.88-7.39-79.69-6.28-53.83,2.22-106.98,15.46-160.12,28.5-53.2,12.82-107.4,25.97-163.34,27.5-27.87,.74-56.05-1.9-83.17-8.97-27.13-7.02-53.15-18.21-76.84-32.99-47.6-29.61-84.65-73.25-111.94-121.02C34.04,405.11,15.04,353.07,.63,300.24Z"/>
    <path class="cls-2" d="M6.07,864.63c53.51,11.77,107.98,20.27,162.55,18.95,54.25-1.42,108.98-11.72,156.32-37.84,23.59-12.93,45.12-29.45,63.7-48.71,18.68-19.26,33.93-41.64,46.71-65.28,25.65-47.5,41.06-100.06,56.52-152.52,15.62-52.46,31.14-105.92,57.37-155.48,13.04-24.7,29.08-48.13,48.34-68.71,19.21-20.69,41.8-38.16,66.29-52.04,24.54-13.83,51.09-23.96,78.32-30.45,27.23-6.54,55.15-9.76,82.96-10.45,55.73-1.42,110.94,7.28,164.4,20.53l4.91,1.21-.69,4.75c-4.38,31.45-12.51,61.54-23.22,90.99-10.77,29.34-24.65,57.63-42.33,83.44-17.73,25.7-39.11,49.13-64.33,67.55-24.96,18.79-53.94,31.67-83.86,39.32,29.55-9.08,57.58-23.12,81.59-42.33,24.22-18.95,44.38-42.59,60.85-68.34,16.31-25.91,29.5-53.73,39.42-82.75,9.92-28.87,17.31-59.06,20.85-89.03l4.22,5.96c-53.09-12.03-107.4-19.16-161.39-17.42-53.83,1.74-107.61,13.88-154.11,40.27-23.17,13.19-44.38,29.77-62.43,49.35-18.15,19.53-33.2,41.85-45.86,65.5-25.39,47.5-40.95,100.01-56.73,152.42-15.94,52.35-32.14,105.71-59.27,154.69-13.51,24.38-30.08,47.34-49.98,67.13-19.84,19.79-42.64,36.52-67.45,49.45-49.66,25.97-106.08,35.73-161.07,34.99-55.31-.63-109.77-10.71-162.6-25.12Z"/>
  </g>
  <circle class="cls-1" cx="497.73" cy="578.06" r="85.18" transform="translate(-262.97 521.26) rotate(-45)"/>
</svg>