<?xml version="1.0" encoding="UTF-8"?>
<svg id="Ebene_1" data-name="Ebene 1" xmlns="http://www.w3.org/2000/svg" viewBox="0 0 54.81 54.8">
  <defs>
    <style>
      .cls-1 {
        fill: #fff;
      }
    </style>
  </defs>
  <path class="cls-1" d="M27.41,13.35c-7.78,0-14.05,6.27-14.05,14.05s6.27,14.05,14.05,14.05,14.05-6.27,14.05-14.05-6.27-14.05-14.05-14.05Zm0,23.18c-5.03,0-9.13-4.1-9.13-9.13s4.1-9.13,9.13-9.13,9.13,4.1,9.13,9.13-4.11,9.13-9.13,9.13ZM45.31,12.77c0,1.82-1.47,3.28-3.28,3.28s-3.28-1.47-3.28-3.28,1.47-3.28,3.28-3.28,3.28,1.47,3.28,3.28Zm9.31,3.33c-.21-4.39-1.21-8.28-4.43-11.48C46.99,1.42,43.1,.41,38.71,.19,34.19-.06,20.63-.06,16.1,.19,11.72,.4,7.83,1.4,4.62,4.61S.41,11.7,.19,16.09C-.06,20.61-.06,34.17,.19,38.7c.21,4.39,1.21,8.28,4.43,11.48,3.22,3.2,7.09,4.21,11.48,4.43,4.52,.26,18.08,.26,22.61,0,4.39-.21,8.28-1.21,11.48-4.43,3.2-3.2,4.21-7.09,4.43-11.48,.26-4.52,.26-18.07,0-22.6Zm-5.84,27.45c-.95,2.4-2.8,4.24-5.21,5.21-3.61,1.43-12.17,1.1-16.15,1.1s-12.56,.32-16.15-1.1c-2.4-.95-4.24-2.8-5.21-5.21-1.43-3.61-1.1-12.17-1.1-16.15s-.32-12.56,1.1-16.15c.95-2.4,2.8-4.24,5.21-5.21,3.61-1.43,12.17-1.1,16.15-1.1s12.56-.32,16.15,1.1c2.4,.95,4.24,2.8,5.21,5.21,1.43,3.61,1.1,12.17,1.1,16.15s.33,12.56-1.1,16.15Z"/>
</svg>