<?xml version="1.0" encoding="UTF-8"?>
<svg id="Layer_1" data-name="Layer 1" xmlns="http://www.w3.org/2000/svg" viewBox="0 0 155.77 53.51">
  <defs>
    <style>
      .cls-1 {
        fill: #eae344;
      }

      .cls-2 {
        fill: #f2f2f2;
      }
    </style>
  </defs>
  <path class="cls-1" d="M55.36,25.27c.4,.2,.84,.3,1.33,.3,.1,0,.2,0,.3-.03,.6-.03,1.22-.15,1.84-.36,.63-.21,1.14-.43,1.54-.66l.08-.13s-.03,.03-.03,.05v.03c.43-.84,.78-1.57,1.03-2.21,.18-.47,.28-.92,.28-1.35,0-.15,0-.29-.03-.43-.05-.32-.19-.66-.43-1.04s-.52-.71-.87-1.02c-.34-.3-.73-.54-1.17-.73-.32-.12-.64-.18-.98-.18-.12,0-.24,0-.38,.03-.53,.08-1.03,.36-1.49,.83-.46,.47-.84,1.03-1.15,1.68s-.53,1.33-.66,2.03c-.1,.45-.15,.87-.15,1.25,0,.23,.02,.45,.05,.65,.1,.64,.39,1.06,.88,1.28Zm1-4.59c.23-.37,.6-.59,1.1-.68,.08-.02,.16-.03,.23-.03,.22,0,.43,.05,.65,.15,.28,.15,.55,.34,.79,.56,.24,.23,.45,.47,.63,.74,.18,.27,.29,.52,.34,.75l-.03,.03c-.33,.23-.72,.41-1.15,.53-.4,.12-.79,.18-1.18,.18-.02,0-.04,0-.08-.03-.4,0-.75-.09-1.05-.26-.3-.18-.48-.45-.53-.81-.02-.07-.03-.13-.03-.2,0-.32,.1-.63,.3-.93Z"/>
  <path class="cls-2" d="M63.56,29.54s-.05-.03-.1-.03l-.05-.05c-.27-.05-.61-.03-1.03,.08-.47,.12-.78,.28-.93,.5-.43,.82-.48,2.37-.15,4.66,.28,2.01-.13,3.53-1.23,4.56-.5,.53-1.07,.91-1.71,1.13-1.2,.13-2.51,.19-3.91,.18H23.19c-.72,0-1.31-.23-1.78-.68-.75-.89-1.2-1.9-1.35-3.03-.09-.71-.19-1.27-.29-1.77,.19-1.04,.29-2.09,.21-3.17l-.4-15.85c.1-2.02-.27-3.23-1.1-3.64-.28-.15-1.06-.16-2.33-.03-1.55,.13-2.32,.67-2.28,1.6l1.35,19.48,.13,1.81c.12,2.19-.86,3.68-2.93,4.48-2.07,.79-4,.43-5.77-1.1-1.77-1.53-2.43-3.41-1.98-5.63,.45-2.22,1.29-3.58,2.52-4.06,1.23-.48,1.9-1.13,2.01-1.94,.11-.81-.22-1.36-.99-1.65s-1.95-.03-3.55,.78c-1.6,.81-2.93,2.64-4.01,5.48-1.08,2.84-.79,5.73,.88,8.65,1.66,2.93,4.41,4.47,8.24,4.64,1.69,0,3.3-.48,4.84-1.45,1.16-.75,2.12-1.77,2.95-2.95,.37,.87,.84,1.75,1.51,2.65,1.19,1.14,2.21,1.68,3.06,1.63,.14,0,.25-.05,.38-.08,.14,.02,.26,.08,.43,.08h3.76s.07-.02,.1-.02c.04,0,.07,.02,.12,.02h3.76s.07-.02,.1-.02c.04,0,.07,.02,.12,.02h3.76s.07-.02,.1-.02c.04,0,.07,.02,.12,.02h3.76s.07-.02,.1-.02c.04,0,.07,.02,.12,.02h3.76s.07-.02,.1-.02c.04,0,.07,.02,.12,.02h3.76s.07-.02,.1-.02c.04,0,.07,.02,.12,.02h3.76s.07-.02,.1-.02c.04,0,.07,.02,.12,.02h3.76s0,0,0,0c3.12,.1,5.57-.44,7.29-1.68,2.26-1.96,3.4-4.8,3.44-8.53v-.05c.05-1.29-.08-2.63-.38-4.04-.1-.74-.56-1.06-1.38-.98Z"/>
  <path class="cls-2" d="M56.76,49.97s-.02-.13-.05-.33c-.07-.55-.35-.97-.85-1.25-.5-.3-1.09-.38-1.76-.25-.65,.13-1.19,.44-1.6,.93-.42,.48-.59,1-.53,1.55,.05,.43,.13,.79,.23,1.05,.07,.22,.22,.52,.45,.9,.28,.48,.74,.78,1.35,.88,.62,.12,1.22,.03,1.81-.28,.6-.32,1.02-.74,1.25-1.28,.22-.55,.19-1.07-.08-1.55-.13-.22-.21-.34-.23-.38Z"/>
  <path class="cls-2" d="M62.93,49.97s-.02-.13-.05-.33c-.07-.55-.35-.97-.85-1.25-.5-.3-1.09-.38-1.76-.25-.65,.13-1.19,.44-1.6,.93-.42,.48-.59,1-.53,1.55,.05,.43,.13,.79,.23,1.05,.07,.22,.22,.52,.45,.9,.28,.48,.74,.78,1.35,.88,.62,.12,1.22,.03,1.81-.28,.6-.32,1.02-.74,1.25-1.28,.22-.55,.19-1.07-.08-1.55-.13-.22-.21-.34-.23-.38Z"/>
  <path class="cls-2" d="M71.96,25.65c-.45-.2-.89-.23-1.33-.1-.45,.15-.77,.43-.95,.85-.47,.17-.79,.47-.95,.9-.17,.43-.15,.88,.05,1.33,.2,.45,.53,.79,1,1,2.37,1.04,3.96,2.51,4.76,4.41,.4,.99,.53,1.96,.38,2.91-.18,.99-.64,1.84-1.35,2.56-1.12,1.09-2.73,1.75-4.84,1.98-.47,.05-.84,.27-1.13,.65-.27,.37-.35,.79-.25,1.28,.1,.47,.35,.85,.75,1.15,.42,.3,.86,.42,1.33,.35,2.84-.3,5.09-1.25,6.74-2.86,.95-.95,1.62-2.06,2.01-3.31,.8-2.52,.68-5-.38-7.42-1.14-2.51-3.08-4.4-5.84-5.69Z"/>
  <path class="cls-1" d="M113.73,10.63c.17,.02,.41,.03,.71,.05s.71,.04,1.19,.08h.23c.64,0,1.28-.13,1.93-.38,.7-.28,1.35-.64,1.96-1.07,.6-.43,1.12-.89,1.57-1.38,.44-.49,.76-.93,.94-1.32l1.3,.3,.48-2.01-1.1-.33c.05-.13,.11-.34,.18-.61s.12-.58,.16-.92c.04-.33,.07-.69,.09-1.05v-.23c0-.27-.02-.52-.05-.75-.07-.28-.18-.52-.33-.71s-.36-.3-.63-.31h-.1c-.43,0-.87,.11-1.3,.33-.47,.25-.88,.58-1.24,.98s-.64,.84-.84,1.33c-.17,.4-.25,.79-.25,1.15,0,.1,0,.2,.03,.3,.05,.47,.26,.89,.63,1.28s.94,.67,1.73,.85c-.47,.55-.94,1.01-1.4,1.37-.47,.36-.99,.69-1.57,.99-.58,.3-1.24,.6-1.98,.9s-1.63,.66-2.65,1.08c-.02,0-.03,0-.03,.03h.05s.13,.03,.3,.05Zm6.85-6.95c-.33-.18-.5-.46-.5-.83v-.1c.02-.23,.11-.44,.28-.63,.13-.13,.32-.2,.55-.2h.13c.08,0,.18,.02,.3,.05s.22,.1,.3,.2v-.05c.12,.08,.19,.24,.23,.46s.05,.46,.05,.71c0,.3-.02,.62-.05,.95-.48-.18-.91-.38-1.28-.58Z"/>
  <path class="cls-2" d="M122.63,15.95c.05,.43,.13,.79,.23,1.05,.07,.22,.22,.52,.45,.9,.28,.48,.74,.78,1.35,.88,.62,.12,1.22,.03,1.81-.28,.6-.32,1.02-.74,1.25-1.28,.22-.55,.19-1.07-.08-1.55-.13-.22-.21-.34-.23-.38,0-.02-.02-.13-.05-.33-.07-.55-.35-.97-.85-1.25-.5-.3-1.09-.38-1.76-.25-.65,.13-1.19,.44-1.6,.93-.42,.48-.59,1-.53,1.55Z"/>
  <path class="cls-2" d="M129.6,22.77c-1.25-1.24-2.7-1.73-4.34-1.48-1.72,.27-3.18,1.28-4.36,3.03-.55,.84-.97,1.81-1.25,2.91-.43,1.76-.33,3.48,.33,5.17,.64,1.65,1.7,3.05,3.18,4.19,.38,.28,.82,.38,1.3,.3,.48-.07,.89-.29,1.2-.68,.33-.38,.48-.81,.45-1.28-.05-.48-.26-.87-.63-1.15-1.02-.77-1.75-1.71-2.18-2.83-.42-1.07-.49-2.11-.23-3.13,.28-1.17,.89-1.97,1.83-2.41,.94-.45,1.82-.27,2.66,.55,.94,.9,1.37,2.48,1.3,4.74-.07,2.16-.53,3.96-1.38,5.42-.65,1.14-1.53,2.11-2.63,2.91-1.76,1.04-4.25,1.55-7.47,1.55h-19.98c-.63,0-1.35-.06-2.02-.09,0-.01,.01-.02,.02-.04,.75-2.36,1.09-4.76,1-7.22-.03-1.84-.37-3.53-1-5.06-.64-1.59-1.52-2.84-2.66-3.76-2.42-2.02-5.05-2.17-7.87-.45-.05,.03-.11,.08-.18,.13-.99,.72-1.79,1.65-2.41,2.78-.64,1.14-1.04,2.38-1.2,3.74-.28,2.29,.08,4.54,1.1,6.74,1.04,2.22,2.52,3.95,4.44,5.19,.1,.07,.21,.09,.32,.13,.39,.24,.84,.48,1.42,.72,.42,.18,.91,.23,1.34,.38-.22,.27-.41,.56-.65,.8-1.47,1.54-3.21,2.24-5.22,2.11-.23-.02-.43-.03-.58-.05-.48-.07-.92,.05-1.3,.35-.38,.28-.6,.66-.65,1.13-.03,.48,.1,.92,.4,1.3,.32,.37,.71,.59,1.18,.65,.33,.05,.62,.08,.85,.1,3.08,.18,5.72-.87,7.92-3.16,.68-.7,1.25-1.53,1.79-2.38,1.25,.15,2.51,.26,3.88,.2,.03,0,.04-.03,.07-.03,.07,0,.11,.03,.18,.03h3.76s.07-.02,.1-.02c.04,0,.07,.02,.12,.02h3.76s.07-.02,.1-.02c.04,0,.07,.02,.12,.02h3.76s.07-.02,.1-.02c.04,0,.07,.02,.12,.02h3.76s.07-.02,.1-.02c.04,0,.07,.02,.12,.02h3.23c.16,.03,.28,.14,.45,.13,6.34-.45,10.78-2.88,13.34-7.3,1.47-2.54,2.06-5.32,1.78-8.32-.27-2.84-1.18-5.02-2.73-6.54Zm-39.78,16.72c-.88-.48-1.53-.9-1.97-1.25l-.08,.11c-.21-.24-.34-.39-.59-.69-.72-.84-1.26-1.94-1.63-3.31-.62-2.32-.4-4.35,.65-6.07,.37-.59,.81-1.07,1.33-1.45,.99-.72,1.98-.66,2.98,.18,.65,.53,1.2,1.32,1.63,2.36,.85,2.09,.99,4.66,.43,7.72-.2,1.11-.51,2.11-.86,3.05-.72-.16-1.37-.36-1.89-.65Z"/>
  <path class="cls-2" d="M139.03,13.36s-.21-.06-.58-.08c-.1,0-.24,0-.43,.03-.2,.03-.35,.05-.45,.05-.4-.03-.81,.29-1.23,.98-.32,.57-.48,1.04-.48,1.43-.02-.47,.32,8.44,1,26.73,.08,1.79,.65,2.59,1.71,2.41,1-.18,1.71-1.18,2.13-2.98,.18-3.79,.2-12.29,.05-25.5,.18-2.14-.39-3.16-1.73-3.06Z"/>
  <polygon class="cls-1" points="153.2 11.21 144.67 16.05 144.25 18.33 152.77 13.49 153.2 11.21"/>
  <path class="cls-2" d="M154.88,31.34c-1.14-2.51-3.08-4.4-5.84-5.69-.45-.2-.89-.23-1.33-.1-.45,.15-.77,.43-.95,.85-.47,.17-.79,.47-.95,.9-.17,.43-.15,.88,.05,1.33s.53,.79,1,1c2.37,1.04,3.96,2.51,4.76,4.41,.4,.99,.53,1.96,.38,2.91-.18,.99-.64,1.84-1.35,2.56-1.12,1.09-2.73,1.75-4.84,1.98-.47,.05-.84,.27-1.13,.65-.27,.37-.35,.79-.25,1.28,.1,.47,.35,.85,.75,1.15,.42,.3,.86,.42,1.33,.35,2.84-.3,5.09-1.25,6.74-2.86,.95-.95,1.62-2.06,2.01-3.31,.8-2.52,.68-5-.38-7.42Z"/>
</svg>