<?xml version="1.0" encoding="UTF-8"?>
<svg id="Ebene_1" data-name="Ebene 1" xmlns="http://www.w3.org/2000/svg" viewBox="0 0 16 16">
  <defs>
    <style>
      .cls-1 {
        fill: #fff;
      }
    </style>
  </defs>
  <path class="cls-1" d="M13,6.5c0,1.43-.47,2.76-1.25,3.83l3.96,3.96c.39,.39,.39,1.02,0,1.42-.39,.39-1.02,.39-1.42,0l-3.96-3.96c-1.07,.79-2.4,1.25-3.83,1.25C2.91,13,0,10.09,0,6.5S2.91,0,6.5,0s6.5,2.91,6.5,6.5Zm-6.5,4.5c2.49,0,4.5-2.01,4.5-4.5S8.99,2,6.5,2,2,4.01,2,6.5s2.01,4.5,4.5,4.5Z"/>
</svg>